<?xml version="1.0" encoding="utf-8"?>
<!-- Generator: Adobe Illustrator 18.0.0, SVG Export Plug-In . SVG Version: 6.00 Build 0)  -->
<svg version="1.1" id="reiya-1" xmlns="http://www.w3.org/2000/svg" xmlns:xlink="http://www.w3.org/1999/xlink" x="0px" y="0px"
	 width="1268px" height="1428px" viewBox="0 0 1268 1428" enable-background="new 0 0 1268 1428" xml:space="preserve">
<g>
	<path fill="#BED7E2" d="M984.453,87.069c0,0,123.812,95.433,119.138,328.292l103.561-64.209c0,0-77.009-264.218-153.41-290.227
		L984.453,87.069z"/>
	<path d="M1103.591,421.36c-1.024,0-2.049-0.262-2.971-0.787c-1.91-1.088-3.072-3.135-3.028-5.334
		c1.052-52.375-4.44-101.972-16.322-147.412c-9.496-36.313-23.072-70.075-40.354-100.347c-29.431-51.555-59.827-75.43-60.131-75.665
		c-1.719-1.331-2.586-3.488-2.263-5.637c0.323-2.149,1.779-3.958,3.813-4.725l69.289-26.144c1.303-0.491,2.737-0.514,4.052-0.066
		c33.388,11.366,70.048,64.607,108.962,158.244c28.599,68.816,48.081,135.32,48.275,135.984c0.754,2.586-0.31,5.358-2.599,6.778
		l-103.562,64.208C1105.785,421.059,1104.688,421.36,1103.591,421.36z M995.95,89.143c11.329,10.602,33.265,33.805,55.03,71.765
		c17.895,31.211,31.948,65.998,41.771,103.395c11.412,43.454,17.11,90.567,16.965,140.2l90.372-56.031
		c-4.791-15.825-22.399-72.326-46.568-130.468c-36.179-87.032-70.615-139.022-99.755-150.675L995.95,89.143z"/>
</g>
<g>
	<path fill="#FFFFFF" d="M807.133,211.422L977.342,34.916l76.4,26.009c0,0-190.257,151.92-214.03,211.32L807.133,211.422z"/>
	<path d="M839.711,278.245c-2.202,0-4.24-1.21-5.288-3.167l-32.578-60.823c-1.229-2.296-0.838-5.123,0.97-6.998L973.022,30.751
		c1.614-1.674,4.051-2.266,6.253-1.515l76.4,26.009c2.075,0.706,3.6,2.488,3.976,4.647c0.377,2.16-0.453,4.353-2.166,5.721
		c-1.891,1.509-189.287,151.602-212.204,208.861c-0.866,2.165-2.909,3.632-5.237,3.761
		C839.934,278.242,839.821,278.245,839.711,278.245z M814.486,212.441l25.072,46.81c34.036-57.717,166.504-167.374,201.938-196.157
		l-62.482-21.27L814.486,212.441z"/>
</g>
<path fill="#4D4D4D" d="M807.569,292.549c36.64-0.74,74.26,1.34,110.94,7.3c7.04,1.14,14.04,2.42,21,3.86c0.02,0,0.02,0,0.02,0
	c5.76-0.34,11.68-1.04,17.36-2.26c8.46-1.8,16.38-4.78,22.42-9.5c9.8-7.64,8.22-16.92,2.74-24.94c1.86-0.6,3.7-1.26,5.54-1.94
	c5.86-2.18,13.7-5.68,20.22-10.42c2.56-1.86,4.92-3.92,6.88-6.18c-2.58-0.2-5.18-0.52-7.7-0.94h-0.02c-6.4-1.06-12.38-2.7-16.98-4.3
	c-17.28-6.04-32.98-16.14-47.92-26.52c-28.7-19.94-55.36-43-88.4-55.64c-19.52-7.46-40.74-9.66-61.46-10.48
	c-20.74-0.84-42.22-0.94-62.82,1.86c-23.88,3.26-48.82,12.64-64.34,30.62c-1.38,1.58-2.68,3.22-3.88,4.94
	c0,0,139.16,56.3,146.18,104.52s0,0,0,0"/>
<g>
	<path fill="#FFFFFF" d="M885.916,402.618c0,0,224.929-20.636,342.553,150.641c0,0-251.756-107.306-371.443-103.179L885.916,402.618
		z"/>
	<path d="M1228.467,559.259c-0.791,0-1.59-0.157-2.351-0.481c-2.412-1.028-242.615-102.814-362.177-102.814
		c-2.317,0-4.511,0.037-6.706,0.113c-2.199,0.071-4.273-1.063-5.386-2.967c-1.114-1.904-1.093-4.265,0.054-6.149l28.89-47.462
		c0.987-1.622,2.686-2.682,4.577-2.855c0.357-0.033,8.926-0.803,23.558-0.803c28.941,0,86.754,3.153,148.771,24.271
		c75.014,25.544,134.135,69.198,175.719,129.751c1.51,2.199,1.387,5.132-0.304,7.197
		C1231.945,558.484,1230.227,559.259,1228.467,559.259z M867.754,443.996c51.321,0.835,127.389,18.297,226.205,51.936
		c49.525,16.859,92.917,33.871,116.946,43.595c-39.118-49.546-91.862-85.849-157.077-108.056
		c-60.38-20.561-116.703-23.63-144.902-23.63c-9.153,0-15.894,0.317-19.493,0.54L867.754,443.996z"/>
</g>
<g>
	<path fill="#333333" d="M983.569,265.549l0.709,0.303C984.043,265.703,983.807,265.597,983.569,265.549z"/>
	<path fill="#333333" d="M976.792,293.725l0.393,0.101c2.954-3.481,6.863-8.691,7.176-12.205c0.507-5.7-5.637-13.338-5.637-13.338
		c2.552-0.813,21.065-14.056,29.482-20.131c-21.568,3.75-141.088,22.708-178.638-10.603l4,12l-18-26l-26,42l2,42l173.2,1.698
		L976.792,293.725z"/>
</g>
<g id="Page-1_1_">
	<g id="Artboard_1_">
		<g id="_x31_">
			<path id="Fill-1_1_"  d="M1107.673,289.339c-6.529-1.625-17.176-2.409-59.984-2.409
				c-13.824,0-29.537,0.082-46.242,0.163c-18.858,0.094-38.991,0.194-59.086,0.194c-32.305,0-77.543-0.232-109.735-2.077
				c-51.559-37.464-110.953-57.461-176.675-59.444c-142.424-4.361-268.525,57.179-336.809,162.965
				c-23.077,21.935-66.494,46.324-78.233,48.928c-19.681,4.373-32.431,21.603-30.303,40.959
				c1.532,13.954,11.457,29.634,33.605,36.925c-2.555,2.51-4.991,5.145-7.257,7.874c-15.01,18.077-21.288,38.625-17.678,57.869
				c0.728,3.859,1.739,7.548,3.026,11.055c-32.469,55.24-49.55,117.946-49.55,182.415c0,16.282,1.099,32.483,3.277,48.526
				c-5.11-0.885-10.245-1.336-15.381-1.336c-24.697,0-47.592,10.704-62.797,29.364c-16.793,20.618-22.682,48.2-16.58,77.664
				c12.424,60.015,103.389,161.189,175.922,178.594c7.144,1.707,13.968,2.579,20.277,2.579c19.405,0,35.432-8.176,45.143-23.021
				c3.082-4.718,5.311-9.725,6.855-14.845c49.5,34.12,106.722,55.252,167.34,61.389c13.133,42.829,48.395,49.969,70.399,49.969
				c33.172,0,61.83-13.477,82.264-38.324c1.846,0.025,3.698,0.044,5.556,0.044c14.024,0,31.452-0.96,51.39-4.034
				c-63.82,71.578-156.015,112.77-223.903,112.782h-0.019c-28.614,0-67.053-7.297-87.707-42.02
				c-27.327-45.941-71.133-74.483-114.312-74.483c-45.357,0-76.871,32.006-78.409,79.635c-0.835,25.781,12.681,53.822,39.092,81.078
				c44.428,45.86,130.578,92.133,222.911,92.133c20.403,0,40.398-2.284,59.425-6.789
				c163.624-38.732,310.228-169.666,352.873-313.676c156.178-119.251,143.799-447.088,92.045-593.263
				c-3.591-10.146-7.471-20.084-11.633-29.785c6.297,0.728,12.524,1.092,18.651,1.092c14.307,0,28.244-2.008,41.433-5.961
				c81.178-24.338,117.852-84.566,117.087-117.613C1133.55,307.014,1123.229,293.229,1107.673,289.339"/>
			<path id="Fill-2_1_"  fill="#005683" d="M259.559,963.077c-8.142-14.964-16.994-30.381-25.676-44.234
				C241.328,934.284,249.904,949.072,259.559,963.077"/>
			<path id="Fill-3_1_"  fill="#0F87BC" d="M840.573,672.692c-50.385-45.144-85.12-72.89-135.066-83.217
				c-33.58-6.94-73.657,1.945-109.013,9.782c-26.794,5.948-49.933,11.093-67.938,9.186c-27.654-2.911-49.576-17.455-55.822-37.069
				c-4.401-13.816-3.195-35.959,27.572-63.02c12.8-11.263,28.118-20.674,44.911-28.323c-24.22,0.038-48.15-4.618-71.152-16.822
				c-29.706,41.235-105.102,71.108-128.305,60.811c-5.154-2.29-10.911-6.218-16.228-11.695c-0.502,0.389-0.967,0.816-1.469,1.211
				c6.121,5.729,10.584,13.754,12.512,23.134c3.911,19.018-2.75,39.366-17.823,54.424c-13.121,13.12-29.65,20.643-45.338,20.643
				c-10.974,0-20.34-3.815-27.358-10.478C219.017,651.773,201,711.122,201,774.757c0,29.628,3.961,58.314,11.237,85.652
				c31.15,25.662,82.458,127.609,93.652,153.183c0.609,1.399,1.299,3.169,2.009,5.214c53.392,49.342,122.956,81.473,199.897,87.409
				c-0.967-12.718-0.534-26.271-0.088-39.654c0.54-16.395,1.105-33.355-1.036-47.284c-1.764-11.463-4.708-23.761-7.828-36.781
				c-11.62-48.545-24.803-103.571,21.646-134.517c8.902-5.935,18.582-8.947,28.758-8.947c41.735,0,79.671,50.296,99.245,88.538
				c26.655-43.124,70.462-70.468,122.555-75.745c26.379-2.679,52.702,0.74,74.398,8.772c7.653-27.821,11.582-56.658,11.582-85.84
				C857.026,739.84,851.489,705.507,840.573,672.692"/>
			<path id="pass_1_" fill="#3AC5EF" d="M624.449,593.309c-9.5,1.86-18.88,3.94-27.96,5.94c-26.78,5.96-49.92,11.1-67.94,9.2
				c-27.64-2.92-49.56-17.46-55.82-37.08c-4.4-13.82-3.2-35.96,27.58-63.02c0.44-0.38,0.94-0.74,1.38-1.12
				c-19.8-6.46-40.66-10.58-62.26-12.04c-34.12,23.04-77.14,36.16-93.68,28.84c-1.18-0.52-2.38-1.14-3.62-1.84
				c-4.1-2.32-8.42-5.6-12.5-9.78l-0.1-0.08c-0.06,0.08-0.12,0.14-0.2,0.18c-0.4,0.36-0.84,0.7-1.26,1.04
				c0.02,0.02,0.06,0.06,0.08,0.08c-9.86,9.22-70.06,66.38-86.94,102.9c0,0.02-0.02,0.04-0.02,0.06
				c-25.58,47.04-40.18,100.86-40.18,158.16c0,29.62,3.88,58.3,11.18,85.6c20.88,17.16,50.86,68.7,71.72,108.54
				c39.86,25.36,87.12,40.12,137.86,40.12c28.06,0,55.02-4.54,80.3-12.84c-1.04-4.46-2.1-9-3.22-13.68
				c-11.62-48.54-24.82-103.56,21.64-134.52c8.9-5.92,18.58-8.94,28.76-8.94c32.1,0,61.9,29.74,82.88,60.88
				c29.58-41.9,47.04-92.98,47.04-148.16C679.169,691.949,658.689,636.969,624.449,593.309z"/>
			<path id="Fill-5_1_" fill="#FFFFFF" d="M399.616,949.204c-14.257,0.922-25.858,0.1-40.027-2.836
				c-4.275-42.584-7.031-95.779,14.433-188.502c38.991,100.93,81.937,174.943,82.245,175.35
				C448.965,936.699,426.755,947.29,399.616,949.204 M334.227,938.45c-111.562-50.672-132.04-170.789-94.606-263.255
				C241.046,766.701,266.684,838.047,334.227,938.45 M485.232,915.862c17.697-76.228,47.115-149.098,64.422-225.439
				c3.34-14.757,6.234-37.722,1.03-63.327C602.243,707.596,596.323,832.632,485.232,915.862 M255.309,644.519
				c50.36-77.47,146.667-140.477,252.372-63.101c-0.709-0.031-67.762,3.043-19.028,75.098
				c26.341,38.939,28.018,70.179,7.182,133.707c-7.521,31.322-9.793,40.777-16.51,73.028
				c-32.161-76.824-58.408-142.228-79.137-225.866c18.224-2.673,38.872-5.703,28.262-17.424c-1.337-1.474-97.337,8.044-98.253,8.201
				c-7.37,1.255-8.663,9.926-8.676,10.008c-0.766,6.845,0.477,6.776,21.275,5.521c5.48,29.527,7.979,43.011,21.539,86.11
				c-9.787,40.677-19.919,82.74-21.307,147.875c-43.744-87.02-61.252-147.461-64.592-223.017c6.209-3.771,14.502-2.29,19.988-7.906
				c3.741-3.834,5.562-12.48,0.898-13.484C282.78,629.706,270.156,641.42,255.309,644.519 M407.306,530.018
				C241.812,543.671,134.349,792.921,280.715,923.36c148.344,132.189,331.617-38.613,325.289-197.091
				C601.088,603.403,499.3,525.601,407.306,530.018"/>
			<path id="Fill-6_1_" fill="#3D340E" d="M640.06,976.686c-0.1-0.395-0.188-0.778-0.289-1.18
				c-0.898-3.576-1.89-7.259-3.007-11.087c-9.323-33.555-53.656-100.29-87.518-100.29c-5.204,0-10.057,1.55-14.834,4.731
				c-29.65,19.764-23.667,55.516-11.143,107.8c3.095,12.931,6.297,26.308,8.218,38.794c2.505,16.244,1.896,34.396,1.312,51.939
				c-0.904,27.243-1.839,55.422,9.913,67.563c5.141,5.314,13.152,7.9,24.496,7.9c3.283,0,6.372-0.245,9.36-0.621
				c0.91-0.113,1.77-0.282,2.649-0.427c2.084-0.339,4.099-0.753,6.039-1.255c0.86-0.226,1.72-0.458,2.555-0.715
				c2.021-0.615,3.955-1.324,5.813-2.108c0.546-0.226,1.124-0.427,1.657-0.665c2.386-1.085,4.658-2.284,6.793-3.601
				c0.207-0.132,0.396-0.282,0.603-0.414c1.89-1.205,3.673-2.485,5.361-3.834c0.496-0.395,0.967-0.803,1.45-1.211
				c1.387-1.173,2.712-2.391,3.968-3.639c0.421-0.42,0.854-0.841,1.262-1.267c1.406-1.481,2.737-2.999,3.98-4.543
				c0.144-0.182,0.308-0.351,0.446-0.533c1.387-1.757,2.662-3.545,3.848-5.339c0.283-0.42,0.527-0.847,0.791-1.261
				c0.841-1.33,1.645-2.66,2.386-3.978c0.358-0.634,0.697-1.255,1.029-1.882c0.578-1.092,1.124-2.171,1.638-3.244
				c0.32-0.671,0.659-1.349,0.961-2.014c0.427-0.935,0.797-1.832,1.174-2.736c0.791-1.889,1.5-3.714,2.091-5.396
				c0.038-0.094,0.075-0.194,0.107-0.282c0.414-1.205,0.791-2.347,1.117-3.407c1.425-4.637,2.072-7.887,2.166-8.433
				c0.094-0.54,0.226-1.104,0.396-1.619c9.41-29.772,13.19-54.813,5.524-91.675C641.693,983.494,640.914,980.13,640.06,976.686"/>
			<path id="Fill-7_1_" fill="#FF8800" d="M942.046,324.94c-37.491,0-91.185-0.314-124.488-3.012
				c-2.9-0.232-5.462-0.232-7.119-0.094c2.455,4.009,8.475,11.03,18.092,19.043l2.423,2.052
				c65.421,55.748,114.663,67.456,144.451,67.462h0.013c10.641,0,20.936-1.474,30.623-4.379
				c45.959-13.779,74.191-42.246,85.277-64.287c4.137-8.238,4.978-13.647,4.978-16.188c-6.253-0.634-22.512-0.954-48.464-0.954
				c-13.811,0-29.518,0.075-46.223,0.163C982.607,324.839,962.305,324.94,942.046,324.94"/>
			<path id="Fill-8_1_" fill="#3D340E" d="M127.066,875.078c-9.511,11.677-12.675,28.103-8.914,46.267
				c9.592,46.343,92.007,136.223,147.829,149.613c4.263,1.023,8.13,1.543,11.488,1.543c8.701,0,11.94-3.407,13.623-5.973
				c6.805-10.409,2.944-33.047-2.455-45.383c-15.456-35.306-64.435-127.866-89.188-146.902
				c-12.461-9.587-25.877-14.651-38.803-14.651C147.13,859.593,135.196,865.096,127.066,875.078"/>
			<path id="Fill-10_1_" fill="#FF8800" d="M835.255,1074.617
				c-18.827,11.244-37.271,20.191-54.968,27.193c-58.082,106.213-184.252,187.824-293.724,189.901
				c-56.544,0.929-100.35-20.379-124.149-60.378c-26.699-44.881-67.48-61.451-94.01-54.625c-17.779,4.58-27.968,19.4-28.689,41.744
				c-0.634,19.601,16.68,45.753,46.311,69.959c53.273,43.532,144.69,78.53,228.787,58.615
				C660.193,1312.617,790.771,1200.305,835.255,1074.617"/>
			<path id="Fill-11_1_" fill="#FF8800" d="M249.081,474.408c-0.879,0.194-1.149,0.496-1.155,0.496
				c0.088-0.031,0.647,1.023,2.731,2.428c3.817,2.579,19.373,9.826,61.497-1.424c-1.293-9.763-0.803-21.941,3.434-36.41
				C290.973,456.608,263.212,471.271,249.081,474.408"/>
			<path id="Fill-13_1_" fill="#FFD200" d="M932.906,489.285c-10.528-29.734-23.46-56.796-38.439-81.122
				c-22.512-10.961-47.83-27.137-75.735-50.91l-2.254-1.92c-30.855-25.687-26.599-37.427-25.205-41.285
				c1.117-3.093,3.101-5.509,5.838-7.316c-41.829-26.773-89.848-41.75-142.298-43.331
				c-130.345-3.947-244.582,51.488-305.646,148.283c-16.693,26.472-22.462,50.528-16.668,69.583
				c4.219,13.879,13.899,22.437,20.905,25.549c11.865,5.283,87.355-20.906,109.29-60.767c1.249-2.253,3.359-3.909,5.851-4.561
				c2.505-0.652,5.148-0.264,7.339,1.085c51.503,31.673,109.396,17.192,159.606,1.136c4.972-1.575,10.252,1.148,11.84,6.099
				c0.847,2.66,0.421,5.402-0.891,7.636c33.184-0.872,66.482,4.185,95.824,15.761c4.834,1.908,7.207,7.372,5.298,12.21
				c-1.908,4.838-7.383,7.216-12.216,5.296c-72.194-28.473-169.964-14.525-222.597,31.773
				c-18.048,15.874-25.889,31.209-22.073,43.174c3.924,12.298,19.932,21.973,39.851,24.062c14.972,1.556,37.755-3.482,61.893-8.841
				c37.196-8.251,79.37-17.606,116.905-9.838c60.831,12.58,101.191,49.053,162.274,104.262l7.445,6.726
				c3.854,3.482,4.156,9.437,0.672,13.289c-1.858,2.064-4.419,3.106-6.987,3.106c-2.134,0-4.244-0.778-5.989-2.227
				c6.027,25.625,9.122,51.933,9.122,78.562c0,31.924-4.432,63.466-13.096,93.84c9.699,5.484,17.848,12.072,23.686,19.626
				c3.183,4.11,2.423,10.026-1.689,13.195c-4.106,3.181-10.038,2.428-13.208-1.688c-16.266-21.038-57.693-33.298-98.617-29.176
				c-29.801,3.018-84.103,17.286-114.877,78.392c1.174,3.137,2.147,6.042,2.856,8.596c16.134,55.265,12.317,88.795,0.119,127.659
				c-1.199,6.557-3.522,14.375-7,22.519c41.439,0.119,114.588-8.979,192.426-62.543
				C993.838,943.758,980.874,624.749,932.906,489.285"/>
			<path id="Fill-14_1_" d="M1103.102,307.603c-4.551-1.142-15.393-1.845-55.27-1.845
				c-13.836,0-29.575,0.075-46.317,0.163c-18.978,0.094-39.236,0.194-59.469,0.194c-34.666,0-83.262-0.27-116.114-2.447
				c-48.69-36.624-106.49-57.153-170.554-59.092c-136.598-4.185-256.635,54.179-321.447,156.019
				c-24.929,24.589-72.841,51.858-88.931,55.44c-7.452,1.65-13.07,6.651-15.054,13.365c-1.996,6.795,0.151,14.23,5.732,19.883
				c5.116,5.158,15.764,11.608,37.064,11.608c11.457,0,26.047-1.907,44.465-6.839c6.918,15.673,18.84,25.65,28.551,29.966
				c23.203,10.296,98.599-19.576,128.305-60.811c23.002,12.204,46.933,16.859,71.152,16.822
				c-16.793,7.648-32.111,17.06-44.911,28.323c-30.767,27.061-31.973,49.204-27.572,63.02c6.246,19.614,28.168,34.158,55.822,37.069
				c18.005,1.907,41.144-3.238,67.938-9.186c35.356-7.837,75.434-16.721,109.013-9.782c49.946,10.328,84.681,38.073,135.066,83.217
				c10.917,32.815,16.454,67.148,16.454,102.065c0,29.182-3.93,58.019-11.582,85.84c-21.696-8.031-48.019-11.451-74.398-8.772
				c-52.093,5.277-95.899,32.621-122.555,75.745c-19.574-38.242-57.511-88.538-99.245-88.538c-10.176,0-19.857,3.012-28.758,8.947
				c-46.449,30.945-33.266,85.972-21.646,134.517c3.12,13.019,6.064,25.317,7.828,36.781c2.141,13.929,1.576,30.889,1.036,47.284
				c-1.08,32.476-2.197,66.051,16.956,85.846c9.982,10.315,24.295,15.548,42.544,15.548c37.742,0,62.144-19.651,76.771-41.618
				c3.333,0.125,6.862,0.213,10.716,0.213c24.289,0,58.528-3.043,97.94-15.058c-58.892,91.468-169.675,159.564-266.428,161.402
				c-34.697,0.753-81.724-7.686-107.607-51.186c-31.433-52.837-81.605-71.817-114.889-63.227
				c-26.216,6.745-41.816,28.392-42.814,59.362c-0.835,25.8,18.563,56.834,53.21,85.137
				c45.551,37.214,117.382,68.554,190.618,68.554c18.18,0,36.455-1.932,54.434-6.187c159.725-37.816,302.4-166.472,340.807-306.717
				c86.382-61.683,113.879-184.291,121.663-276.833c9.919-117.971-8.406-235.076-30.968-298.793
				c-7.973-22.519-17.339-43.5-27.804-63.108c20.98,7.034,38.652,9.318,52.551,9.318h0.013c12.474,0,24.59-1.744,36.034-5.17
				c73.462-22.029,104.199-76.315,103.671-99.148C1114.917,315.898,1110.416,309.429,1103.102,307.603L1103.102,307.603z
				 M312.154,475.908c-42.124,11.25-57.68,4.003-61.497,1.424c-2.084-1.405-2.643-2.46-2.731-2.428c0.006,0,0.276-0.301,1.155-0.496
				c14.131-3.137,41.892-17.8,66.507-34.911C311.35,453.966,310.861,466.145,312.154,475.908L312.154,475.908z M636.846,1078.431
				c-0.17,0.515-0.301,1.079-0.396,1.619c-0.458,2.56-11.84,62.807-69.244,62.807c-11.344,0-19.354-2.585-24.496-7.9
				c-11.752-12.141-10.817-40.319-9.913-67.563c0.584-17.543,1.193-35.695-1.312-51.939c-1.921-12.486-5.123-25.863-8.218-38.794
				c-12.524-52.285-18.507-88.036,11.143-107.8c4.777-3.181,9.63-4.731,14.834-4.731c33.862,0,78.196,66.734,87.518,100.29
				C651.335,1014.351,648.04,1043.006,636.846,1078.431L636.846,1078.431z M514.813,1347.026
				c-84.097,19.915-175.514-15.084-228.787-58.615c-29.631-24.207-46.945-50.358-46.311-69.959
				c0.722-22.343,10.911-37.163,28.689-41.744c26.53-6.827,67.31,9.744,94.01,54.625c23.799,39.999,67.605,61.307,124.149,60.378
				c109.472-2.077,235.642-83.688,293.724-189.901c17.697-7.002,36.141-15.949,54.968-27.193
				C790.771,1200.305,660.193,1312.617,514.813,1347.026L514.813,1347.026z M932.906,489.285
				c47.968,135.464,60.932,454.473-86.445,555.892c-77.838,53.564-150.987,62.662-192.426,62.543c3.478-8.144,5.801-15.962,7-22.519
				c12.198-38.864,16.014-72.394-0.119-127.659c-0.709-2.554-1.682-5.459-2.856-8.596c30.774-61.106,85.076-75.374,114.877-78.392
				c40.925-4.122,82.352,8.138,98.617,29.176c3.17,4.116,9.103,4.869,13.208,1.688c4.112-3.169,4.872-9.085,1.689-13.195
				c-5.838-7.554-13.987-14.143-23.686-19.626c8.663-30.374,13.096-61.916,13.096-93.84c0-26.628-3.095-52.937-9.122-78.562
				c1.745,1.449,3.854,2.227,5.989,2.227c2.568,0,5.129-1.042,6.987-3.106c3.484-3.853,3.183-9.807-0.672-13.289l-7.445-6.726
				c-61.083-55.208-101.443-91.681-162.274-104.262c-37.535-7.768-79.709,1.587-116.905,9.838
				c-24.138,5.358-46.92,10.397-61.893,8.841c-19.919-2.089-35.928-11.764-39.851-24.062c-3.817-11.965,4.024-27.3,22.073-43.174
				c52.633-46.299,150.403-60.247,222.597-31.773c4.834,1.92,10.308-0.458,12.216-5.296c1.909-4.838-0.464-10.303-5.298-12.21
				c-29.342-11.576-62.639-16.633-95.824-15.761c1.312-2.234,1.739-4.976,0.891-7.636c-1.588-4.951-6.868-7.674-11.84-6.099
				c-50.21,16.056-108.103,30.537-159.606-1.136c-2.191-1.349-4.834-1.738-7.339-1.085c-2.492,0.652-4.602,2.309-5.851,4.561
				c-21.935,39.861-97.425,66.051-109.29,60.767c-7.006-3.112-16.686-11.67-20.905-25.549c-5.794-19.055-0.025-43.111,16.668-69.583
				c61.064-96.795,175.3-152.229,305.646-148.283c52.451,1.581,100.469,16.558,142.298,43.331c-2.737,1.807-4.721,4.223-5.838,7.316
				c-1.394,3.859-5.65,15.598,25.205,41.285l2.254,1.92c27.905,23.774,53.223,39.949,75.735,50.91
				C909.446,432.489,922.378,459.551,932.906,489.285L932.906,489.285z M1091.319,341.724
				c-11.086,22.042-39.318,50.509-85.277,64.287c-9.687,2.905-19.982,4.379-30.623,4.379h-0.013
				c-29.788-0.006-79.031-11.714-144.451-67.462l-2.423-2.052c-9.617-8.012-15.638-15.033-18.092-19.043
				c1.657-0.138,4.219-0.138,7.119,0.094c33.304,2.698,86.997,3.012,124.488,3.012c20.258,0,40.561-0.1,59.563-0.195
				c16.705-0.088,32.412-0.163,46.223-0.163c25.952,0,42.212,0.32,48.464,0.954C1096.297,328.077,1095.456,333.485,1091.319,341.724
				L1091.319,341.724z"/>
			<path id="Fill-15_1_" d="M454.207,396.204c-14.972,11.225-10.459,25.104,6.278,27.193
				c16.743,2.089,18.049,3.2,33.486-8.37c16.737-12.549,18.833-33.468,0-31.372C475.137,385.751,462.582,389.93,454.207,396.204"/>
			<path id="Fill-16_1_" d="M410.263,404.574c0,10.397-8.431,18.823-18.833,18.823
				c-10.396,0-18.833-8.427-18.833-18.823c0-10.397,8.437-18.823,18.833-18.823C401.832,385.751,410.263,394.178,410.263,404.574"/>
			<path id="Fill-17_1_" d="M627.894,352.29c0,10.397-8.431,18.823-18.833,18.823
				c-10.402,0-18.833-8.427-18.833-18.823c0-10.397,8.431-18.823,18.833-18.823C619.463,333.467,627.894,341.893,627.894,352.29"/>
			<path id="Fill-18_1_" d="M277.469,1091.325L277.469,1091.325c-4.834,0-10.176-0.69-15.883-2.058
				c-63.688-15.285-150.855-110.862-161.878-164.107c-4.928-23.811-0.402-45.822,12.744-61.96
				c11.62-14.255,29.185-22.431,48.194-22.431c17.113,0,34.503,6.419,50.291,18.56c31.006,23.836,83.601,128.336,94.951,154.262
				c4.721,10.786,14.094,43.161,0.96,63.24C302.524,1083.445,293.911,1091.325,277.469,1091.325L277.469,1091.325z M160.646,859.593
				c-13.516,0-25.45,5.503-33.58,15.485c-9.511,11.677-12.675,28.103-8.914,46.267c9.592,46.343,92.007,136.223,147.829,149.613
				c4.263,1.023,8.13,1.543,11.488,1.543c8.701,0,11.94-3.407,13.623-5.973c6.805-10.409,2.944-33.047-2.455-45.383
				c-15.456-35.306-64.435-127.866-89.188-146.902C186.988,864.656,173.572,859.593,160.646,859.593L160.646,859.593z"/>
		</g>
	</g>
	<path id="pass" fill="#FFB700" d="M794.62,329.912l-83.54,47.003c0,0-33.333,35.813-83.186,57.834
		c-49.853,22.021-124.959,20.29-124.959,20.29c19.942,14.836,135.749-2.992,185.473-11.504l-2.208,6.487l56.546,35.129
		c0,0,95.133,16.78,135.413-69.791L794.62,329.912z"/>
</g>
<g>
	<path fill="#FFFFFF" d="M389.489,314.607c0,0,236-68,314-62l12,68c0,0-216,10-340,52L389.489,314.607z"/>
	<path d="M367.102,381.783l17.374-71.975l3.353-0.966c8.872-2.556,218.281-62.609,304.958-62.609c4.021,0,7.777,0.132,11.164,0.393
		l4.64,0.357l13.995,79.303l-6.817,0.316c-2.151,0.1-216.587,10.446-338.353,51.689L367.102,381.783z M394.499,319.419
		l-10.661,44.166c37.63-11.743,102.345-26.967,207.485-38.691c54.75-6.105,100.378-8.984,117.078-9.921l-9.996-56.642
		c-1.79-0.066-3.668-0.099-5.621-0.099C613.636,258.232,422.203,311.578,394.499,319.419z"/>
</g>
<path fill="#BED7E2" d="M445.847,347.672c-12.5,2.9-24.62,6.04-36.18,9.4c-1.74-5.02-3.24-10.1-4.6-15c-0.1-0.36-0.2-0.7-0.28-1.06
	c-0.02-0.04-0.02-0.08-0.02-0.1c-0.02-0.02-0.02-0.04-0.02-0.04c-0.98-3.62-1.82-7.28-2.54-10.96
	C413.927,341.632,429.607,345.992,445.847,347.672z"/>
<path fill="#BED7E2" d="M602.356,320.699c-0.04,0.84-0.255,2.627-0.356,3.467c-14.76,1.7-29.984,2.693-45.624,4.893
	c4.58-1.88,9.46-4.26,14.46-7.26c0.04-0.02,0.1-0.06,0.14-0.08c10.84-7.12,19.78-16.48,25.18-28.34c0.08-0.14,0.16-0.3,0.22-0.46
	C600.896,301.479,602.935,311.12,602.356,320.699z"/>
<path fill="#BED7E2" d="M673.229,317.079c-16.32,1.34-35.28,3.06-55.8,5.26c7.22-2.64,13.98-6.22,19.8-12.92
	c5.04-5.78,8.6-12.66,11.28-19.98c0.06-0.14,0.12-0.26,0.16-0.4c7.02,7.4,13.76,15.06,20.26,22.82
	C670.369,313.579,671.809,315.319,673.229,317.079z"/>
<path fill="#4D4D4D" d="M815.569,232.829c0.14-2.82,0.08-5.68-0.14-8.54c-0.02-0.16-0.02-0.32-0.04-0.48
	c-0.16-2.06-0.4-4.1-0.7-6.14c-0.56,0.36-1.16,0.68-1.84,0.94c-1.3,0.54-2.62,1.04-3.94,1.52c-4.22,1.56-8.5,2.9-12.8,4.2
	c-12.16,3.68-24.76,5.84-37.4,7.08c-2.52,0.24-5.06,0.44-7.6,0.56c-17.4-13.52-36.52-25.16-55.94-35.16
	c-8.28-4.28-16.76-8.16-25.42-11.58c-1.88-0.74-3.78-1.46-5.7-2.16c-10.88-4-22.02-7.24-33.38-9.56c-24.16-4.92-48.74-3-73,0.26
	c-53.28,7.18-115.92,24.92-153.74,66.56c-14.76-1.58-30.08-0.36-44.3,2.4c-36.74,7.12-66.32,29.94-86.24,60.54
	c-1.28,1.94-2.5,3.9-3.68,5.9c2.32,0.06,4.62,0.12,6.94,0.18c5.63,0.145,11.26,0.306,16.891,0.454l0.022-0.026l0.563,0.041
	c0.375,0.01,0.75,0.02,1.125,0.03c-0.017,0.016-0.033,0.033-0.05,0.049l3.425,0.252c0,0-32.335,31.494-31.162,52.74
	c0,0-6.74,39.985-1.758,60.508c3.816,15.72,16.271,40.873,21.896,51.794c0.342-0.642,0.68-1.285,1.03-1.922
	c2.76-5,5.7-9.84,8.28-14.46c0.2-0.34,0.38-0.68,0.58-1.02c3.24,13.24,9.44,25.1,19.94,33.4c2.06,1.62,4.28,3.12,6.68,4.42
	c-0.62-2.56-1.04-5.22-1.28-7.92c-2.14-23.3,8.62-50.46,16.6-69.22c6.6-15.5,14.28-30.76,22.96-45.36c0.18-0.32,0.38-0.62,0.56-0.94
	c0.84-1.4,1.7-2.82,2.56-4.22c0.76-1.24,1.54-2.48,2.32-3.72c0.12-0.18,0.22-0.36,0.34-0.54c0.06,0.06,0.14,0.14,0.2,0.2
	c1.9,1.88,3.82,3.74,5.82,5.5c2.5,1.88,5.4,3.94,8.7,6.08c-0.34-0.26-0.66-0.52-0.98-0.76c10.14,6.7,23.34,12.26,33.18,15.92
	c7.76,2.9,13.42,4.6,13.92,4.74c-3.44-2.68-8.34-14.02-12.64-25.46c-1.6-3.52-3.02-7.14-4.3-10.78c-1.74-5.02-3.24-10.1-4.6-15
	c-0.1-0.36-0.2-0.7-0.28-1.06c-0.02-0.04-0.02-0.08-0.02-0.1c-0.02-0.02-0.02-0.04-0.02-0.04c-0.98-3.62-1.82-7.28-2.54-10.96
	c11.72,11.72,27.4,16.08,43.64,17.76c3.5,0.36,7,0.6,10.52,0.76c1.468,0.065,2.929,0.104,4.391,0.147l3.007-0.803
	c-15.418-3.881-23.408-20.793-27.214-32.8c-0.683-1.661-1.307-3.356-1.864-5.084c-1.22-3.8-2.12-8.12-2.46-12.5
	c-0.46-6.04,0.14-12.2,2.4-17.34c1.16-2.64,3.74-3.08,6.86-2.3c0.04,0,0.06,0,0.08,0.02c4.8,1.18,10.9,5.14,15.26,8.34
	c0.9,0.66,1.74,1.3,2.48,1.86c0.7,0.58,1.4,1.14,2.06,1.64c0.24,0.22,0.48,0.4,0.7,0.58c0.24,0.2,0.38,0.32,0.38,0.32l0.26,0.18
	c0.02,0,0.04,0.02,0.04,0.02l6.64,4.66l-0.36-5.14c0.04-0.24,0.1-0.46,0.1-0.72l0.26,0.16l6.3,3.82l2.06-8.14l0.1-0.38l0.08-0.36
	l0.36,0.22l0.44,0.28l6.98,4.26l1.64-6.46l0.2-0.8l0.42-1.62l1.66,1.02l0.96,0.58l5.14,3.14l1.2-4.72l0.12-0.5l0.52,0.34l3.92,2.52
	c0,0.02,0,0.02,0,0.02h0.02l-0.14-3.5l-0.14-3.22c-0.1-1.22-0.14-2.38-0.16-3.56c0-0.4,0-0.8,0.02-1.2c0-0.56,0.02-1.12,0.06-1.68
	c0.02-0.28,0.04-0.58,0.06-0.88c0.24-3.66,0.84-6.96,2.16-8.32c0.02-0.02,0.02-0.02,0.04-0.04c2.62-4.42,7.42-5.84,12.72-5.78
	c0.02,0,0.02,0,0.04,0c1.48,0.02,3,0.16,4.52,0.38c3.34,0.48,6.58,1.18,9.6,2.22c6.28,2.12,11.64,5.66,15.12,11.54
	c0.3,0.48,0.56,0.96,0.82,1.46c0.02,0.02,0.04,0.04,0.04,0.06c0.62,0.98,1.2,2.02,1.72,3.12c10,20.86-15.98,50.18-24.84,59.3
	c-1.24,1.26-2.14,2.14-2.58,2.56c-0.22,0.08-0.44,0.14-0.58,0.14c0,0,0.14,0,0.42,0.02c-0.08,0.08-0.14,0.14-0.14,0.14
	s0.1-0.06,0.28-0.14c2.8,0.04,15.5-0.38,31.76-7.08h0.02c4.58-1.88,9.44-4.26,14.44-7.26c0.04-0.02,0.1-0.06,0.14-0.08
	c10.84-7.12,19.78-16.48,25.18-28.34c0.08-0.14,0.959-1.217,1.019-1.377c0.24,0.454,0.713,0.919,0.939,1.379
	c8.445,8.804,6.576,23.941,5.38,31.469c3.584-0.902,15.79-4.082,24.836-7.741c3.763-2.177,7.316-4.946,10.567-8.691
	c5.04-5.78,8.6-12.66,11.28-19.98c0.06-0.14,0.12-0.26,0.16-0.4c0.03,0.031,0.059,0.064,0.089,0.095
	c0.552-1.806,0.933-3.819,0.746-5.65c0,0,31.726,25.752,50.278,61.752c12.454,24.167,20.946,51.533,25.183,66.914
	c8.861-15.125,22.705-39.539,22.705-44.471c1.18,5.82,10.9,55.68,5.92,61.42c0.74-0.52,18.7-13.38,29.1-27.86
	c2.76-4.26,5.06-8.76,6.76-13.56c2.62-7.26,3.9-15.14,3.44-23.74c-0.08-2.1-0.3-4.26-0.62-6.46c-0.12-0.82-0.26-1.64-0.42-2.44
	c0.58-0.62,1.14-1.24,1.68-1.86c0.46-0.52,0.92-1.06,1.36-1.6c13.66-16.4,19.46-36.3,17.36-59.54c-0.18-1.98-0.42-3.98-0.7-6
	c-0.4-2.8-0.92-5.64-1.54-8.54c-1.32-6.12-3.14-12.44-5.44-18.98c1.7-1.76,3.26-3.68,4.72-5.78
	C813.469,247.109,815.209,240.089,815.569,232.829z"/>
<path fill="#00FF00" d="M939.109,297.489"/>
<path fill="#00FF00" d="M971.729,264.029"/>
<path fill="#00FFFF" d="M367.829,364.229c-0.78,1.24-1.56,2.48-2.32,3.72c-0.86,1.4-1.72,2.82-2.56,4.22l0.58-11.92
	C363.529,360.249,364.989,361.789,367.829,364.229z"/>
<path fill="#00FFFF" d="M381.909,374.709c-5.52-3.64-10.16-7.64-12.84-11.82C369.589,363.529,373.709,368.409,381.909,374.709z"/>
<path fill="#333333" d="M753.78,154.352c0,0-39.546,21.143-42.804,28.816l28.007-3.695l-21.426,11.937l57.807,8.676L724.7,206.3
	c0,0,58.99,12.543,65.981,16.975l-39.853,12.413c0,0-49.017-40.588-85.174-52.52C665.655,183.168,691.268,149.125,753.78,154.352z"
	/>
<path fill="#333333" d="M270.709,309.169c0,0,69.346-52.518,112.203-38.232c0,0-78.378,28.626-86.663,38.912L270.709,309.169z"/>
<path fill="#333333" d="M315.569,357.549c0,0-60.667,60.667-30,120l12-18C297.569,459.549,304.236,363.549,315.569,357.549z"/>
<path fill="#333333" d="M379.109,342.529c-0.14-0.24-0.26-0.46-0.38-0.64c-0.28,0.08-0.62,0.2-1.06,0.34
	c-8.9,3.14-48.26,20.34-64.18,83.42c0,0-6,47.3,7.5,67.4c1.32,0.9,2.68,1.78,4.12,2.56c-0.62-2.56-1.04-5.22-1.28-7.92
	c-2.14-23.3,8.62-50.46,16.6-69.22c6.6-15.5,14.28-30.76,22.96-45.36c1.02-1.72,2.06-3.44,3.12-5.16c0.76-1.22,1.52-2.44,2.28-3.66
	c0.12-0.2,0.26-0.4,0.38-0.6c0.22,0.22,0.44,0.42,0.66,0.64l0.173-0.406c8.108,8.983,18.449,14.748,28.744,19.947
	c5.752,2.658,11.462,4.943,16.343,6.759C401.349,380.489,383.229,349.369,379.109,342.529z"/>
<path fill="#333333" d="M803.719,259.889c-0.051-0.113-0.098-0.226-0.15-0.34C803.601,259.697,803.655,259.802,803.719,259.889z"/>
<polygon fill="#333333" points="466.589,287.536 478.069,295.558 481.542,281.761 "/>
<polygon fill="#333333" points="472.231,281.546 488.1,291.421 492.035,277.414 "/>
<path fill="#333333" d="M815.569,232.829c0.322-3.63,0.92-6.8,0-9.28c0,0-0.06,0.08-0.18,0.26c-2.36,3.52-29.38,41.72-75.82,27.74
	c0,0,28,28,28,38l-53.98-27.98c0.76,1.1,25.34,36.16,25.98,47.98c0,0-47.34-40.66-58-42c0,0,8,20,6,28l-46.281-14.146l-0.48-0.356
	c0.032,0.078,0.055,0.157,0.084,0.235l-0.763-0.233c0,0,0.352,0.354,0.998,1.018c2.805,12.193-30.894,27.482-30.894,27.482
	c0-8.244-14.586-25.136-14.586-25.136l-0.845,8.187c2.884,4.626,12.441,21.276,8.852,33.214c6.044-1.459,16.099-4.192,23.692-7.791
	c13.801-9.491,19.485-22.469,21.369-27.93c7.509,8.14,18.981,21.147,30.525,36.381c8.616,7.403,24.498,23.452,34.094,47.859
	c7.158,18.207,9.466,31.964,10.045,40.946c8.674-14.718,24.291-41.931,24.291-47.17c1.18,5.82,10.9,55.68,5.92,61.42
	c0.74-0.52,18.7-13.38,29.1-27.86c3.22-4.48,5.72-9.1,6.76-13.56c0.04-0.18,0.08-0.38,0.12-0.56c1.8-8.7,2.78-16.84,3.32-23.18
	c0.42-4.82,0.58-8.58,0.64-10.76c0.04-1.34,0.04-2.06,0.04-2.06c0.28,0.46,0.74,0.62,1.32,0.46c5.92-1.4,25.34-33.1,15.12-74.08
	c-1.434-5.833-3.508-11.878-6.29-18.04c-0.064-0.087-0.118-0.192-0.15-0.34c0.052,0.114,0.099,0.226,0.15,0.34
	C805.147,261.835,814.152,248.823,815.569,232.829z"/>
<g>
	<polygon fill="#333333" points="505.758,279.536 505.769,279.505 505.751,279.538 	"/>
	<path fill="#333333" d="M595.649,284.409c0,0-25.1,19.7-46,35.1c14.52-12.64,28.1-30.94,20.74-51.96
		c-9.94-28.38-36.98-25.54-51.86-21.5l-0.32-0.68c6.58-17.14,14.2-35.44,18.82-41.24c-3.94,4.56-29.42,34.18-34.3,43.4l-7.56-46
		l-22.7,46c0,0-11.36-33-10.6-42l-6.06,48l-30.26-2c0,0,11.06,8.48,20.92,17.18l-17.2-7.52c0.397,0.369,5.017,4.707,11.161,10.284
		c-5.975,1.47-29.541,9.156-26.132,38.41c0.002,0.025,0.005,0.051,0.007,0.076c0.003,0.024,0.003,0.046,0.006,0.07l0.004,0.004
		c0.266,3.159,1.213,6.395,3.04,9.669c14.799,26.518,52.58,31.487,52.58,31.487c-4-1.66-7.72-3.72-11.16-6.12
		c-11.12-7.82-19.24-19.3-23.54-32.64c-2.9-9.02-3.98-20.96-0.06-29.84c1.994-4.506,8.128-2.576,14.13,0.785l-0.22-0.75
		l10.144,5.544l0.66,0.36c0.62,0.5,1.22,1,1.82,1.5c0.96,0.78,1.88,1.52,2.76,2.22c0.06,0.04,0.1,0.08,0.16,0.14
		c0.16,0.1,0.34,0.24,0.48,0.36c0.02,0,0.04,0.02,0.04,0.02c2.68,2.1,4.98,3.74,6.64,4.66v-10.68l6.72,0.78l1.74-0.5l0.44-0.14
		l9.26-2.72l2.08-0.6l0.06-0.02l6.04,3.74l1.32-5.22l4.44,2.88c0,0,0,0,0-0.02c-0.04-0.4-0.46-5.16-0.42-10.26
		c0-0.4,0.02-0.8,0.02-1.2c0.02-0.56,0.04-1.12,0.06-1.68c0.02-0.28,0.04-0.58,0.06-0.88c0.24-3.66,0.84-6.96,2.16-8.32
		c0.02-0.02,0.02-0.02,0.04-0.04c3.62-3.7,5.4-6.5,17.28-5.4c3.34,0.48,6.58,1.18,9.6,2.22c6.16,2.58,11.94,6.64,15.94,13
		c0.02,0.02,0.04,0.04,0.04,0.06c0.62,0.98,1.2,2.02,1.72,3.12c11.38,23.74-23.84,58.42-27.42,61.86c-0.22,0.08-0.44,0.14-0.58,0.14
		c0,0,0.14,0,0.42,0.02c-0.08,0.08-0.14,0.14-0.14,0.14s0.1-0.06,0.28-0.14c3.58,0.04,23.44-0.66,46.22-14.34
		c0.04-0.02,0.1-0.06,0.14-0.08c16-9.64,22.68-20.36,25.18-28.34C595.949,290.149,596.009,286.429,595.649,284.409z
		 M447.737,278.032c0.278,0.246,0.553,0.491,0.832,0.738l-0.577,0.133L447.737,278.032z"/>
</g>
<path fill="#FFFFFF" d="M680.397,189.264c0,0,26.778,15.164,32.745,18.497c0,0-5.245-16.537-16.372-22.269
	C685.642,179.759,680.397,189.264,680.397,189.264z"/>
<path fill="#E6E6E6" d="M702.069,189.364c-4.159,1.19-8.111,3.033-11.475,5.671c8.239,4.661,19.023,10.757,22.548,12.725
	C713.142,207.761,709.563,196.523,702.069,189.364z"/>
<g>
	<path fill="#1A1A1A" d="M634.379,843.185c0,0-47.403-167.136-49.535-244.273l51.063-10.592
		C635.907,588.32,668.641,817.333,634.379,843.185z"/>
	<path d="M630.833,595.5c2.205,16.513,8.075,62.942,11.171,110.944c4.894,75.882-0.044,108.495-5.33,122.498
		c-10.671-39.257-42.393-160.445-45.636-225.188L630.833,595.5 M635.907,588.32l-51.063,10.592
		c2.133,77.137,49.535,244.273,49.535,244.273C668.641,817.334,635.907,588.32,635.907,588.32L635.907,588.32z"/>
</g>
<path fill="#91D3ED" d="M869.519,821.704c0,0-60-4.156-140,31.762c-80,35.918-88,65.38-88,65.38s40,120.691,0,277.615l276-122.307
	L869.519,821.704z"/>
<path d="M609.249,1171.193l26.13,45.9l2.764-73.198C638.143,1143.896,622.576,1162.896,609.249,1171.193z"/>
<path fill="#81C5CC" d="M620.588,1169.084l13.672,31.127l11.382-56.315C645.643,1143.896,630.076,1162.896,620.588,1169.084z"/>
<path d="M641.521,1206.461c-2.321,0-4.617-0.808-6.456-2.362c-2.926-2.472-4.182-6.396-3.236-10.107
	c20.229-79.358,19.218-149.038,14.807-193.518c-4.79-48.308-14.514-78.191-14.611-78.487c-0.613-1.861-0.669-3.868-0.155-5.759
	c0.945-3.483,11.605-35.09,93.555-71.884c65.908-29.591,118.466-32.785,138.004-32.785c4.197,0,6.53,0.153,6.783,0.171
	c4.532,0.313,8.284,3.644,9.133,8.107l48,252.45c0.868,4.565-1.523,9.128-5.773,11.011l-276,122.307
	C644.271,1206.18,642.891,1206.461,641.521,1206.461z M652.193,919.549c2.865,9.777,10.186,37.538,14.275,78.26
	c4.267,42.495,5.558,107.125-10.591,181.352l250.334-110.934l-44.996-236.655c-19.792,0.252-67.589,4.073-127.602,31.018
	C673.185,889.72,656.234,912.51,652.193,919.549z"/>
<g>
	<path fill="#00ADFF" d="M882.278,355.044c0,0,227.313,360.72,190.14,719.573c0,0-148.539,114.635-320.576,78.37l-9.394-689.779
		L882.278,355.044z"/>
	<path d="M820.694,1166.078c-23.781,0-47.362-2.43-70.089-7.22c-2.746-0.579-4.724-2.983-4.762-5.789L736.45,463.29
		c-0.026-1.886,0.836-3.673,2.328-4.827l139.829-108.165c1.338-1.036,3.047-1.458,4.716-1.163c1.665,0.294,3.129,1.278,4.031,2.71
		c0.571,0.907,57.738,92.223,109.53,226.253c30.427,78.739,53.104,156.65,67.4,231.569c17.896,93.783,22.641,183.133,14.101,265.567
		c-0.169,1.635-1.001,3.128-2.302,4.132c-1.152,0.889-28.725,22.01-74.102,43.408
		C960.089,1142.529,894.631,1166.078,820.694,1166.078z M757.776,1148.069c20.461,3.988,41.602,6.009,62.918,6.009
		c71.588,0,135.154-22.85,175.873-42.019c37.459-17.633,63-35.475,70.149-40.684c8.05-80.544,3.268-167.82-14.219-259.459
		c-14.162-74.214-36.639-151.426-66.807-229.494c-44.09-114.096-91.985-196.799-105.043-218.533L748.489,466.122L757.776,1148.069z"
		/>
</g>
<path fill="#FFFFFF" d="M1075.769,957.689c-23.58-34.5-51.74-65.28-51.74-65.28l-28.86,122.06l-56.58-92.1l-46.6,128.7l-45.5-96.52
	l-37.74,120.06l-53.08-81.192l-2.309,159.871c171.396,35.273,319.048-78.679,319.048-78.679
	C1076.469,1035.509,1077.369,996.369,1075.769,957.689z"/>
<path d="M820.691,1170.078c-24.054,0-47.91-2.457-70.905-7.304l-7.936-9.648l-2.239-163.64l-7.16-526.141l3.88-8.046l139.82-108.16
	l14.578,2.578c0.456,0.723,46.097,73.57,92.625,184.176c27.324,64.954,49.65,130.113,66.359,193.668
	c20.92,79.572,33.048,156.86,36.047,229.717c1.681,40.601,0.535,80.425-3.404,118.364l-3.836,6.883
	c-1.166,0.9-29.072,22.28-74.837,43.863C961.421,1146.319,895.368,1170.078,820.691,1170.078z M761.737,1144.749
	c19.211,3.538,39.004,5.329,58.954,5.329c70.764,0,133.663-22.594,173.968-41.547c35.071-16.492,59.623-33.178,68.246-39.35
	c3.48-35.659,4.447-73.006,2.872-111.079c-2.938-71.346-14.828-147.117-35.343-225.212
	c-16.444-62.599-38.434-126.814-65.355-190.861c-36.312-86.383-72.01-149.326-85.564-172.208l-126.999,98.243l7.092,521.149
	L761.737,1144.749z"/>
<g>
	<polygon fill="#05A4E2" points="876.284,364.99 861.348,338.521 702.854,463.279 733.136,482.26 	"/>
	<path d="M733.135,490.26c-1.469,0-2.942-0.403-4.248-1.222l-30.282-18.982c-2.205-1.382-3.601-3.751-3.739-6.351
		c-0.14-2.6,0.995-5.104,3.04-6.714l158.494-124.758c1.835-1.444,4.211-2.015,6.499-1.562c2.291,0.453,4.27,1.883,5.416,3.917
		l14.937,26.469c1.911,3.386,1.11,7.656-1.898,10.12l-143.148,117.27C736.739,489.649,734.941,490.26,733.135,490.26z
		 M716.731,462.536l15.782,9.892l133.498-109.364l-7.047-12.487L716.731,462.536z"/>
</g>
<path d="M472.789,353.083c-0.26,0.08-0.52,0.1-0.82,0.1c-4.02-0.06-8.1-0.14-12.2-0.32c-2.96-1.96-5.78-4.14-8.4-6.54
	c-11.2-10.16-19-24.02-21-39.28c-1.16-8.88-2.38-24.9,6.94-30.36c13.34-7.82,22.8,10.2,33.22,14.24c3.56,1.38,2.02,7.18-1.6,5.78
	c-6.58-2.54-25.98-23.34-30.9-12.22c-3.92,8.88-2.84,20.82,0.06,29.84c4.3,13.34,12.42,24.82,23.54,32.64
	C465.069,349.363,468.789,351.423,472.789,353.083z"/>
<path d="M1014.689,248.469c-1.96,2.26-4.32,4.32-6.88,6.18c-2.8-0.46-5.62-1.08-8.4-1.84c-7.92-2.14-15.64-5.3-22.5-8.5
	c-33.42-15.58-60.36-41.1-91.44-60.44c-17.8-11.06-36.68-19.86-57.46-23.62c-22.7-4.1-45.9-4.3-68.9-3.76
	c-30.18,0.74-67.66,5.96-88.36,28.74c-1.42,1.56-2.74,3.18-3.98,4.9c-1.86-0.74-3.72-1.46-5.6-2.12c1.2-1.72,2.5-3.36,3.88-4.94
	c15.52-17.98,40.46-27.36,64.34-30.62c20.6-2.8,42.08-2.7,62.82-1.86c20.72,0.82,41.94,3.02,61.46,10.48
	c33.04,12.64,59.7,35.7,88.4,55.64c14.94,10.38,30.64,20.48,47.92,26.52c4.6,1.6,10.58,3.24,16.98,4.3h0.02
	C1009.509,247.949,1012.109,248.269,1014.689,248.469z"/>
<path d="M1014.689,248.469c-1.96,2.26-4.32,4.32-6.88,6.18c-6.52,4.74-14.36,8.24-20.22,10.42c-1.84,0.68-3.68,1.34-5.54,1.94
	c-1.9,0.66-3.84,1.26-5.76,1.84c-19.14,5.68-38.9,8.04-59,7.02c-3.86-0.2-3.88-6.2,0-6c18.3,0.92,36.8-0.66,54.44-5.84
	c0.28-0.08,0.56-0.16,0.84-0.24c1.84-0.56,3.68-1.1,5.52-1.7c6.48-2.04,12.92-4.4,18.76-7.76c0.78-0.46,1.66-0.96,2.56-1.52
	c2.4-1.44,5.12-3.22,7.56-5.28h0.02C1009.509,247.949,1012.109,248.269,1014.689,248.469z"/>
<path d="M979.309,291.949c-6.04,4.72-13.96,7.7-22.42,9.5c-5.68,1.22-11.6,1.92-17.36,2.26c0,0,0,0-0.02,0
	c-6.96-1.44-13.96-2.72-21-3.86c0.28-1.18,1.2-2.14,2.78-2.06c5.92,0.28,11.88,0.2,17.8-0.3c0.02,0,0.02,0,0.02,0
	c7.82-0.7,15.54-2.14,23.02-4.56c8.46-2.76,24.58-8.4,16.66-20.64c-0.78-1.22-1.62-2.36-2.5-3.44c-1.4-1.74-2.94-3.32-4.56-4.82
	c0.28-0.08,0.56-0.16,0.84-0.24c1.84-0.56,3.68-1.1,5.52-1.7c1.44,1.56,2.78,3.22,3.96,4.92
	C987.529,275.029,989.109,284.309,979.309,291.949z"/>
<path d="M816.429,224.289c-0.16-2.22-0.42-4.42-0.74-6.62c-0.56,0.36-1.16,0.68-1.84,0.94c-1.3,0.54-2.62,1.04-3.94,1.52
	c-4.22,1.56-8.5,2.9-12.8,4.2c-12.16,3.68-24.76,5.84-37.4,7.08c-2.52,0.24-5.06,0.44-7.6,0.56c-17.4-13.52-36.52-25.16-55.94-35.16
	c-8.28-4.28-16.76-8.16-25.42-11.58c-1.88-0.74-3.78-1.46-5.7-2.16c-10.88-4-22.02-7.24-33.38-9.56c-24.16-4.92-48.74-3-73,0.26
	c-53.28,7.18-115.92,24.92-153.74,66.56c-14.76-1.58-30.08-0.36-44.3,2.4c-36.74,7.12-66.32,29.94-86.24,60.54
	c-1.28,1.94-2.5,3.9-3.68,5.9c2.32,0.06,4.62,0.12,6.94,0.18c6.2,0.16,12.4,0.34,18.6,0.5c2.78,0.06,5.58,0.14,8.36,0.22
	c2.32-2.04,4.72-3.96,7.2-5.82c-3.02-0.08-6.02-0.16-9.04-0.24c-7.08-0.18-14.18-0.36-21.26-0.56c19.54-28.46,47.48-48.5,82.5-55.28
	c11.48-2.22,24-3.18,36.14-2.28c2.34,0.16,4.64,0.42,6.94,0.74c1.56-1.82,3.22-3.58,4.98-5.28c5.58-5.48,11.9-10.36,17.92-14.76
	c29.42-21.6,64.62-34.24,100.04-41.9c26.12-5.64,54.06-9.6,80.82-7.98c17.18,1.06,34.1,5.34,50.32,11.3
	c1.88,0.66,3.74,1.38,5.6,2.12c5.62,2.2,11.16,4.58,16.58,7.08c20.6,9.5,40.8,21.34,59.26,35.04c2.56,1.88,5.1,3.82,7.58,5.8
	c2.94-0.1,5.9-0.3,8.84-0.54c4.02-0.34,8.02-0.82,12.02-1.42c13.48-2.04,26.54-5.28,39.36-9.82c0.3,8.2-0.92,16.28-5.3,23.86
	c-0.56,0.96-1.16,1.86-1.8,2.74c-1.34,1.8-2.86,3.44-4.52,4.94c-7.7,7.02-18.52,11.32-27.6,15.14c-3.54,1.52-0.48,6.68,3.04,5.2
	c9.5-4.04,18.8-8.32,26.56-14.7c1.68-1.4,3.28-2.88,4.78-4.5c1.7-1.76,3.26-3.68,4.72-5.78
	C816.109,244.749,817.189,234.509,816.429,224.289z"/>
<path d="M956.89,301.45c-5.68,1.22-11.6,1.92-17.36,2.26c0,0,0,0-0.02,0c-6.96-1.44-13.96-2.72-21-3.86
	c-34.79-5.65-70.42-7.81-105.26-7.38c-1.9,0.01-3.79,0.04-5.68,0.08c-0.07,0-0.15,0-0.22-0.01v-0.01c-0.2-1.9-0.44-3.84-0.74-5.8
	c0-0.01,0-0.01,0-0.02c0.28-0.1,0.61-0.15,0.96-0.16c1.66-0.04,3.32-0.06,4.98-0.08c41.93-0.56,85.08,2.61,126.54,11.02
	c0.02,0,0.02,0,0.02,0C945.07,298.71,951.01,300.01,956.89,301.45z"/>
<polygon id="pa13" points="468.336,299.507 466.569,299.05 469.136,288.968 476.922,293.705 479.176,284.823 486.953,289.564
	489.205,280.685 496.977,285.43 499.228,276.549 508.055,281.934 507.111,283.508 500.386,279.406 498.135,288.287 490.363,283.542
	488.111,292.421 480.333,287.679 478.08,296.558 470.294,291.821 "/>
<path d="M792.849,355.471L792.849,355.471c15.841-17.041,22.641-38.101,20.401-63.001c-0.18-1.98-0.42-3.98-0.7-6
	c-1.26-8.74-3.58-17.9-6.98-27.52c-0.7-2-1.44-4.04-2.26-6.08c-1.34,1.8-2.86,3.44-4.52,4.94c0.72,1.9,1.38,3.78,2,5.64
	c2.76,8.13,4.7,15.89,5.82,23.26c0,0.01,0,0.01,0,0.02c0.3,1.96,0.54,3.9,0.74,5.8v0.01c2.16,21.96-3.22,40.45-16.16,55.83
	c0,0,0,0.001-0.001,0.001c0,0,0-0.001,0-0.001c-1.98-7.1-4.76-14.04-7.4-20.82c-1.38-3.58-7.18-2.02-5.78,1.6
	c3.16,8.14,6.2,16.28,8.14,24.66c0.54,2.3,1,4.62,1.34,6.98c0.58,3.86,0.86,7.78,0.78,11.8c-0.28,14.72-8.92,27.98-18.82,38.14
	c-3.64,3.74-7.72,7.22-12.08,10.46c-2.22,1.68-4.5,3.28-6.84,4.84c-0.6,3.02-1.44,5.94-2.5,8.72c2.68-1.72,5.34-3.52,7.92-5.38
	c23.62-16.98,41.98-39.6,37.32-71.46C793.149,357.09,793.009,356.27,792.849,355.471z"/>
<g id="pa9">
	<path id="pa11" fill="#00ADFF" d="M829.197,468.891l-222.754-29.394c0,0,82.289,336.846,33.686,401.273
		c0,0,162.933,59.907,216.897-56.059"/>
	<path id="pa10" d="M730.669,864.239c-0.802,0-1.602-0.004-2.409-0.013c-48.306-0.489-89.176-15.317-90.892-15.948
		c-2.377-0.874-4.199-2.822-4.914-5.251c-0.715-2.43-0.236-5.054,1.288-7.076c6.859-9.092,14.792-31.199,13.63-84.887
		c-0.771-35.599-5.401-80.632-13.763-133.849c-14.28-90.882-34.732-174.981-34.938-175.82c-0.627-2.565,0.053-5.275,1.816-7.241
		c1.764-1.965,4.377-2.937,7.002-2.589l222.754,29.394c4.38,0.578,7.462,4.598,6.885,8.978c-0.578,4.38-4.59,7.467-8.979,6.885
		l-211.253-27.876c6.073,26.141,21.218,93.87,32.518,165.786c8.473,53.922,13.167,99.674,13.953,135.986
		c0.856,39.579-2.838,67.737-11.267,85.502c14.438,4.285,44.126,11.738,76.712,12.012c0.642,0.006,1.284,0.008,1.921,0.008
		c58.335,0,98.377-22.502,119.039-66.903c1.864-4.007,6.625-5.743,10.628-3.878c4.006,1.864,5.742,6.622,3.878,10.628
		C841.081,837.94,794.907,864.237,730.669,864.239z"/>
</g>
<path id="pa8" fill="#FFFFFF" d="M771.012,473.71l-91.843,46.276l106.981,38.268l-86.369,53.483l71.231,34.66L708,685.462
	l61.616,30.29l-54.128,34.476L771.012,774l-52.283,33.95l70.84,38.901c0,0-78.934,28.98-149.44-6.081
	c0,0,34.585-94.944-12.235-301.805l-21.451-99.468l179.69,23.711L771.012,473.71z"/>
<path id="pa7" d="M730.663,862.239c-0.791,0-1.586-0.004-2.383-0.012c-47.964-0.486-88.519-15.2-90.222-15.826
	c-1.783-0.656-3.149-2.116-3.686-3.939c-0.536-1.822-0.178-3.791,0.966-5.307c13.156-17.44,23.88-69.794,0.257-220.179
	c-14.289-90.968-34.775-175.215-34.981-176.056c-0.47-1.924,0.04-3.956,1.363-5.43c1.322-1.475,3.292-2.201,5.251-1.942
	l222.754,29.394c3.285,0.433,5.597,3.448,5.163,6.733c-0.434,3.285-3.444,5.599-6.733,5.163l-214.119-28.254
	c5.558,23.745,21.423,93.843,33.146,168.457c18.076,115.045,18.669,189.746,1.796,222.401c13.516,4.151,44.85,12.481,79.462,12.787
	c26.647,0.237,49.908-4.253,69.271-13.338c23.903-11.215,41.943-29.623,53.619-54.713c1.398-3.006,4.965-4.31,7.971-2.908
	c3.005,1.397,4.307,4.967,2.908,7.971C839.619,836.34,794.073,862.239,730.663,862.239z"/>
<g id="pa6">
	<g>
		<path fill="none" stroke="#231815" stroke-width="20" stroke-linecap="round" stroke-linejoin="round" d="M242.095,515.617
			l-13.658,6.25l-39.494,18.018L41.179,219.749c-3.033-8.826-1.246-18.336,2.913-27.42c10.639-23.33,36.792-43.983,36.792-43.983
			L242.095,515.617z"/>
		<g>
			<path fill="none" stroke="#231815" stroke-width="20" stroke-linecap="round" stroke-linejoin="round" d="M338.589,699.951
				l-92.413-180.397c-4.542,4.075-9.685,7.531-15.189,9.784c-1.748-0.972-8.16,2.328-8.356,6.796
				c-11.784-3.776-24.217-0.328-36.988,3.355l94.739,191.061C313.517,743.046,333.491,733.79,338.589,699.951z"/>
			<path fill="none" stroke="#231815" stroke-width="20" stroke-linecap="round" stroke-linejoin="round" d="M329.832,684.26
				l-84.154-164.275c-4.422,3.882-9.385,7.181-14.691,9.353c-1.748-0.972-8.16,2.328-8.356,6.796
				c-12.048-3.86-24.771-0.172-37.842,3.601l86.837,175.125C304.761,727.355,324.734,718.099,329.832,684.26z"/>
		</g>
		<g>
			<path fill="none" stroke="#231815" stroke-width="20" stroke-linecap="round" stroke-linejoin="round" d="M252.146,491.629
				c0,0-123.631,47.829-108.443,76.852c15.189,29.023,130.022-39.748,130.022-39.748
				C300.395,501.742,291.664,490.038,252.146,491.629z"/>
			<path fill="none" stroke="#231815" stroke-width="20" stroke-linecap="round" stroke-linejoin="round" d="M159.59,581.627
				c-0.004,0-0.002,0-0.007,0c-13.037-0.002-18.722-5.637-21.196-10.363c-2.394-4.575-2.609-9.783-0.624-15.064
				c11.446-30.431,101.936-66.19,112.217-70.167l0.929-0.359l0.995-0.04c2.428-0.098,4.775-0.148,6.978-0.148
				c12.73,0,30.212,1.334,35.029,12.866c4.865,11.647-6.754,25.323-15.917,34.598l-0.534,0.54l-0.651,0.39
				C273.553,535.831,196.665,581.627,159.59,581.627z M253.389,497.587c-4.679,1.849-26.433,10.59-48.937,21.98
				c-43.083,21.807-53.238,34.96-55.457,40.859c-1.014,2.696-0.52,4.234,0.024,5.273c1.363,2.605,4.919,3.926,10.566,3.927
				c32.124,0.005,102.866-41.206,110.409-45.656c14.405-14.737,13.231-20.065,12.844-20.992c-0.383-0.917-3.338-5.492-23.957-5.492
				C257.142,497.487,255.299,497.521,253.389,497.587z"/>
		</g>
		<path fill="none" stroke="#231815" stroke-width="20" stroke-linecap="round" stroke-linejoin="round" d="M240.784,516.616
			l-53.152,24.268L39.858,220.766c-4.849-14.161,2.659-30.01,12.422-43.163c-4.159,9.084-5.945,18.594-2.913,27.42l147.764,320.136
			l39.494-18.018L240.784,516.616z"/>
		<g>
			<polygon fill="none" stroke="#231815" stroke-width="20" stroke-linecap="round" stroke-linejoin="round" points="
				179.247,522.728 187.629,540.886 240.784,516.618 232.532,497.82 			"/>
			<path fill="none" stroke="#231815" stroke-width="20" stroke-linecap="round" stroke-linejoin="round" d="M187.632,546.887
				c-2.268,0-4.438-1.293-5.451-3.487l-8.381-18.158c-1.384-2.998-0.085-6.552,2.907-7.95l53.285-24.907
				c1.463-0.684,3.142-0.75,4.654-0.18c1.512,0.569,2.731,1.725,3.381,3.204l8.251,18.797c1.318,3.003-0.019,6.508-3.002,7.87
				l-53.155,24.268C189.313,546.712,188.466,546.887,187.632,546.887z M187.198,525.634l3.374,7.312l42.341-19.331l-3.405-7.758
				L187.198,525.634z"/>
		</g>
	</g>
	<g>
		<path fill="#B3B3B3" d="M242.095,515.617l-13.658,6.25l-39.494,18.018L41.179,219.749c-3.033-8.826-1.246-18.336,2.913-27.42
			c10.639-23.33,36.792-43.983,36.792-43.983L242.095,515.617z"/>
		<g>
			<path fill="#333333" d="M338.589,699.951l-92.413-180.397c-4.542,4.075-9.685,7.531-15.189,9.784
				c-1.748-0.972-8.16,2.328-8.356,6.796c-11.784-3.776-24.217-0.328-36.988,3.355l94.739,191.061
				C313.517,743.046,333.491,733.79,338.589,699.951z"/>
			<path fill="#494843" d="M329.832,684.26l-84.154-164.275c-4.422,3.882-9.385,7.181-14.691,9.353
				c-1.748-0.972-8.16,2.328-8.356,6.796c-12.048-3.86-24.771-0.172-37.842,3.601l86.837,175.125
				C304.761,727.355,324.734,718.099,329.832,684.26z"/>
		</g>
		<g>
			<path fill="#998B52" d="M252.146,491.629c0,0-123.631,47.829-108.443,76.852c15.189,29.023,130.022-39.748,130.022-39.748
				C300.395,501.742,291.664,490.038,252.146,491.629z"/>
			<path fill="#231815" d="M159.59,581.627c-0.004,0-0.002,0-0.007,0c-13.037-0.002-18.722-5.637-21.196-10.363
				c-2.394-4.575-2.609-9.783-0.624-15.064c11.446-30.431,101.936-66.19,112.217-70.167l0.929-0.359l0.995-0.04
				c2.428-0.098,4.775-0.148,6.978-0.148c12.73,0,30.212,1.334,35.029,12.866c4.865,11.647-6.754,25.323-15.917,34.598l-0.534,0.54
				l-0.651,0.39C273.553,535.831,196.665,581.627,159.59,581.627z M253.389,497.587c-4.679,1.849-26.433,10.59-48.937,21.98
				c-43.083,21.807-53.238,34.96-55.457,40.859c-1.014,2.696-0.52,4.234,0.024,5.273c1.363,2.605,4.919,3.926,10.566,3.927
				c32.124,0.005,102.866-41.206,110.409-45.656c14.405-14.737,13.231-20.065,12.844-20.992c-0.383-0.917-3.338-5.492-23.957-5.492
				C257.142,497.487,255.299,497.521,253.389,497.587z"/>
		</g>
		<path fill="#E6E6E6" d="M240.784,516.616l-53.152,24.268L39.858,220.766c-4.849-14.161,2.659-30.01,12.422-43.163
			c-4.159,9.084-5.945,18.594-2.913,27.42l147.764,320.136l39.494-18.018L240.784,516.616z"/>
		<g>
			<polygon fill="#E0E700" points="179.247,522.728 187.629,540.886 240.784,516.618 232.532,497.82 			"/>
			<path d="M187.632,546.887c-2.268,0-4.438-1.293-5.451-3.487l-8.381-18.158c-1.384-2.998-0.085-6.552,2.907-7.95l53.285-24.907
				c1.463-0.684,3.142-0.75,4.654-0.18c1.512,0.569,2.731,1.725,3.381,3.204l8.251,18.797c1.318,3.003-0.019,6.508-3.002,7.87
				l-53.155,24.268C189.313,546.712,188.466,546.887,187.632,546.887z M187.198,525.634l3.374,7.312l42.341-19.331l-3.405-7.758
				L187.198,525.634z"/>
		</g>
	</g>
</g>
<g id="pa">
	<path id="Fill-9_1_" fill="#FFD200" d="M226.37,627.823c2.882,15.347,13.07,18.572,21.112,18.572
		c10.572,0,22.543-5.653,32.023-15.134c10.578-10.572,15.324-24.52,12.694-37.326c-1.632-7.95-5.976-14.042-11.62-16.295
		c-0.923-0.37-2.191-0.565-3.672-0.565c-10.139,0-28.658,9.123-40.9,23.868C231.537,606.334,224.33,616.987,226.37,627.823"/>
	<path id="Fill-12_2_" d="M248.481,665.219L248.481,665.219c-20.516,0-35.702-13.001-39.632-33.932
		c-2.555-13.628,2.298-28.674,13.66-42.365c14.759-17.769,38.056-30.669,55.395-30.669c3.905,0,7.496,0.64,10.666,1.907
		c11.532,4.612,20.158,15.824,23.071,29.992c3.911,19.018-2.75,39.366-17.823,54.424
		C280.699,657.696,264.169,665.219,248.481,665.219L248.481,665.219z M277.905,577.076c-10.139,0-28.658,9.123-40.9,23.868
		c-4.47,5.39-11.677,16.044-9.636,26.88c2.882,15.347,13.07,18.572,21.112,18.572c10.572,0,22.544-5.653,32.023-15.134
		c10.578-10.572,15.324-24.52,12.694-37.326c-1.632-7.95-5.976-14.042-11.62-16.295
		C280.655,577.271,279.387,577.076,277.905,577.076L277.905,577.076z"/>
</g>
<path d="M460.72,344.63c-3.42-0.14-6.84-0.32-10.26-0.64c-15.62-1.42-30.73-5.34-41.99-16.72l-2.29-2.47l-2.18-2.36l-0.09-0.1
	l-2.03-2.19c-1.54-1.14-3.03-2.4-4.45-3.79c0.02,0.19,0.04,0.37,0.06,0.56c1.17,10.87,3.2,21.66,6.18,32.33
	c4.26,15.27,10.4,31.46,21.24,43.3c-19.36-6.92-36.83-18.09-51.33-32.7c-0.33-0.33-0.66-0.66-0.98-0.99
	c-0.07-0.071-0.137-0.147-0.207-0.218c0.008-0.017,0.019-0.034,0.027-0.052c-0.33-0.33-0.66-0.66-0.98-0.99
	c-0.91-0.92-1.8-1.87-2.68-2.83c-0.68,0.14-1.31,0.54-1.79,1.26c-0.68,1.04-1.38,2.1-2.06,3.16c-0.03,0.05-0.06,0.09-0.09,0.14
	c-1.21,1.89-2.42,3.83-3.61,5.76c-1.06,1.7-2.08,3.42-3.1,5.16c-10.18,17.16-18.96,35.26-26.36,53.68
	c-6.72,16.7-14.1,38.4-13.9,58.56c0,0.685,0.013,1.368,0.035,2.049c-0.353-0.344-0.706-0.688-1.044-1.042
	c-8.14-8.42-12.68-19.7-14.82-31.94c-0.04-0.2-0.06-0.38-0.1-0.58c-0.5-3.04-0.88-6.14-1.1-9.28c-0.02-0.2-0.02-0.42-0.04-0.62
	v-0.04c-1.16-16.58,1.28-33.92,4.68-47.68c0.92-3.76-4.86-5.36-5.8-1.6c-4.16,16.88-6.76,38.3-3.92,57.94v0.02
	c0.02,0.2,0.06,0.4,0.1,0.6c-1.06,1.82-2.1,3.64-3.12,5.48c-2.098,3.736-4.435,7.653-6.734,11.689
	c-0.999-1.579-1.978-3.157-2.978-4.736c-2.26-3.6-4.52-7.22-6.78-10.82c-4.76-7.56-5.82-20.94-7.38-29.66
	c-5.7-31.42-1.66-64.18,16.54-90.88c5.3-7.76,11.82-14.94,19.22-21.32c2.32-2.04,4.72-3.96,7.2-5.82
	c15.68-11.76,34.26-20.24,52.56-24c3.78-0.78,2.18-6.56-1.6-5.8c-21.54,4.44-42.7,15.04-60,29.56c-2.24,1.88-4.42,3.82-6.52,5.84
	c-6,5.7-11.4,11.9-16.04,18.5c-17.88,25.4-22.48,57.62-18.32,87.88c2.14,15.52,4.84,31.86,13.24,45.24
	c2.519,4.019,5.038,8.017,7.557,12.036c-0.002,0.004-0.004,0.008-0.006,0.012c1.24,1.98,2.5,3.96,3.72,5.94
	c0.002-0.004,0.004-0.008,0.006-0.012c0.001,0.001,0.002,0.003,0.003,0.004c1.02-2.08,2.1-4.14,3.22-6.18
	c-0.001-0.001-0.002-0.002-0.002-0.004c2.658-4.816,5.496-9.492,7.994-13.949c3.26,13.04,9.44,24.68,19.8,32.88
	c2.06,1.62,4.28,3.12,6.68,4.42c-0.145-0.599-0.277-1.205-0.401-1.814c0.465,0.275,0.931,0.548,1.41,0.807
	c-0.62-2.56-1.04-5.22-1.28-7.92c-2.14-23.3,8.62-50.46,16.6-69.22c6.6-15.5,14.28-30.76,22.96-45.36c1.02-1.72,2.06-3.44,3.12-5.16
	c0.746-1.206,1.504-2.42,2.265-3.628c4.033,4.004,11.988,11.372,20.918,16.767c14.125,9.73,29.962,16.899,46.917,21.171
	c0.47,0.26,0.93,0.36,1.36,0.35c2.54-0.07,4.18-3.96,1.44-5.65c-0.08-0.05-0.17-0.11-0.25-0.16
	c-17.96-11.28-25.28-33.25-30.69-52.68c-1.021-3.65-1.894-7.323-2.641-11.021c14.162,13.325,33.737,16.555,53.031,17.431
	c4.1,0.18,8.18,0.26,12.2,0.32c0.3,0,0.56-0.02,0.82-0.1C467.88,349.09,464.16,347.03,460.72,344.63z"/>
<path d="M593.789,280.889c-0.54,2.46-1.22,4.82-2.06,7.08c-8.697,24.217-32.425,37.83-57.34,43.67
	c16.333-17.589,35.705-45.575,15.922-66.97c-9.26-10.02-25.52-14.13-38.77-11.93c-12.59,2.1-14.33,18.4-13.44,28.3
	c0.34,3.82,6.34,3.86,6,0c-0.37-4.11-0.38-7.93,0.35-12.03c1.8-10.13,10.39-11.6,19.04-10.34c4.99,0.72,9.75,1.94,13.92,3.99
	c5.7,4.58,13.25,12.17,14.6,20.99v0.01c0.1,0.79,0.17,1.58,0.21,2.37v0.03c0.82,18.3-15.27,34.77-27.32,46.77
	c-0.24,0.239-0.409,0.492-0.548,0.749c-0.021,0.004-0.043,0.007-0.064,0.011c-3.82,0.58-2.18,6.36,1.6,5.78
	c28.58-4.34,58.04-18.54,69.82-45.02c1.04-2.32,1.94-4.74,2.68-7.24C597.009,284.949,595.469,282.869,593.789,280.889z"/>
<path id="pa2" d="M552.83,286.03c-0.04-0.79-0.11-1.58-0.21-2.37C552.74,284.44,552.81,285.23,552.83,286.03z"/>
<path d="M748.669,369.289c-1.48-3.2-3.12-6.2-4.88-8.96c-0.26,3.26-0.72,6.48-1.34,9.64c-2.68,13.84-8.52,26.84-16.82,38.02
	c-0.56-7.18-2.14-14.34-4.18-21.14c-9.18-30.58-29.42-57.7-49.78-81.78c-6.36-7.52-12.96-14.9-19.86-22.04
	c-1.58-1.68-3.22-3.34-4.86-4.98c-0.62,2.18-1.28,4.36-2.02,6.48c-2.6,7.54-6,14.72-10.94,21.08c-6.76,8.7-16.34,12.02-26.26,14.82
	c0.28-11.68-2.9-23.3-9.34-33.32c-1.38-2.16-2.92-4.24-4.6-6.22c-0.54,2.46-1.22,4.82-2.06,7.08c1.5,2.04,2.82,4.18,3.98,6.38
	c4.52,8.56,6.56,18.2,5.98,27.78c-0.12,2.06-0.36,4.12-0.74,6.16c2.12-0.7,4.24-1.34,6.34-1.98c11.3-3.36,22.2-6.4,30.94-16.46
	c4.472-5.116,7.761-11.111,10.333-17.497c7.846,8.104,27.947,29.277,36.839,42.465c7.704,11.426,20.454,31.79,27.75,46.034
	c2.675,7.278,4.72,14.741,5.939,22.377c0.62,3.92,0.86,7.92,0.72,11.9c-0.1,3.24-0.46,6.46-1.08,9.64c2.48-2.34,4.84-4.82,7.04-7.4
	v-0.02c9.5-11,16.58-24.02,20.6-38.06c5.12,14.48,7.2,31.84,4.16,46.74c-0.6,3.02-1.44,5.94-2.5,8.72c2.68-1.72,5.34-3.52,7.92-5.38
	c0.64-2.66,1.1-5.4,1.42-8.18C759.409,403.789,755.709,384.429,748.669,369.289z"/>
</svg>
